<svg aria-hidden="true" style="position: absolute; width: 0; height: 0; overflow: hidden;" version="1.1" xmlns="http://www.w3.org/2000/svg" xmlns:xlink="http://www.w3.org/1999/xlink">
<defs>
<symbol id="icon-home" viewBox="0 0 32 32">
<title>home</title>
<path d="M32 19l-6-6v-9h-4v5l-6-6-16 16v1h4v10h10v-6h4v6h10v-10h4z"></path>
</symbol>
<symbol id="icon-envelop" viewBox="0 0 32 32">
<title>envelop</title>
<path d="M29 4h-26c-1.65 0-3 1.35-3 3v20c0 1.65 1.35 3 3 3h26c1.65 0 3-1.35 3-3v-20c0-1.65-1.35-3-3-3zM12.461 17.199l-8.461 6.59v-15.676l8.461 9.086zM5.512 8h20.976l-10.488 7.875-10.488-7.875zM12.79 17.553l3.21 3.447 3.21-3.447 6.58 8.447h-19.579l6.58-8.447zM19.539 17.199l8.461-9.086v15.676l-8.461-6.59z"></path>
</symbol>
<symbol id="icon-user" viewBox="0 0 32 32">
<title>user</title>
<path d="M18 22.082v-1.649c2.203-1.241 4-4.337 4-7.432 0-4.971 0-9-6-9s-6 4.029-6 9c0 3.096 1.797 6.191 4 7.432v1.649c-6.784 0.555-12 3.888-12 7.918h28c0-4.030-5.216-7.364-12-7.918z"></path>
</symbol>
<symbol id="icon-config" viewBox="0 0 32 32">
<title>config</title>
<path d="M29.181 19.070c-1.679-2.908-0.669-6.634 2.255-8.328l-3.145-5.447c-0.898 0.527-1.943 0.829-3.058 0.829-3.361 0-6.085-2.742-6.085-6.125h-6.289c0.008 1.044-0.252 2.103-0.811 3.070-1.679 2.908-5.411 3.897-8.339 2.211l-3.144 5.447c0.905 0.515 1.689 1.268 2.246 2.234 1.676 2.903 0.672 6.623-2.241 8.319l3.145 5.447c0.895-0.522 1.935-0.82 3.044-0.82 3.35 0 6.067 2.725 6.084 6.092h6.289c-0.003-1.034 0.259-2.080 0.811-3.038 1.676-2.903 5.399-3.894 8.325-2.219l3.145-5.447c-0.899-0.515-1.678-1.266-2.232-2.226zM16 22.479c-3.578 0-6.479-2.901-6.479-6.479s2.901-6.479 6.479-6.479c3.578 0 6.479 2.901 6.479 6.479s-2.901 6.479-6.479 6.479z"></path>
</symbol>
<symbol id="icon-star" viewBox="0 0 32 32">
<title>star</title>
<path d="M32 12.408l-11.056-1.607-4.944-10.018-4.944 10.018-11.056 1.607 8 7.798-1.889 11.011 9.889-5.199 9.889 5.199-1.889-11.011 8-7.798z"></path>
</symbol>
<symbol id="icon-favorite" viewBox="0 0 24 24">
<title>heart</title>
<path d="M20.133 5.317c0.88 0.881 1.319 2.031 1.319 3.184s-0.44 2.303-1.319 3.182l-8.133 8.133-8.133-8.133c-0.879-0.879-1.318-2.029-1.318-3.183s0.439-2.304 1.318-3.183 2.029-1.318 3.183-1.318 2.304 0.439 3.183 1.318l1.060 1.060c0.391 0.391 1.024 0.391 1.414 0l1.062-1.062c0.879-0.879 2.029-1.318 3.182-1.317s2.303 0.44 3.182 1.319zM21.547 3.903c-1.269-1.269-2.934-1.904-4.596-1.905s-3.327 0.634-4.597 1.903l-0.354 0.355-0.353-0.353c-1.269-1.269-2.935-1.904-4.597-1.904s-3.328 0.635-4.597 1.904-1.904 2.935-1.904 4.597 0.635 3.328 1.904 4.597l8.84 8.84c0.391 0.391 1.024 0.391 1.414 0l8.84-8.84c1.269-1.269 1.904-2.934 1.905-4.596s-0.634-3.327-1.905-4.598z"></path>
</symbol>
<symbol id="icon-expired" viewBox="0 0 32 32">
<title>calendar</title>
<path d="M28 30h-24c-1.104 0-2-0.896-2-2v-21c0-1.104 0.896-2 2-2h2v1c0 1.657 1.343 3 3 3s3-1.343 3-3v-1h8v1c0 1.657 1.344 3 3 3s3-1.343 3-3v-1h2c1.104 0 2 0.896 2 2v21c0 1.104-0.896 2-2 2zM28 12h-24v16h24v-16zM13.069 19.829c0.197-0.314 0.296-0.646 0.296-0.993 0-0.773-0.416-1.16-1.248-1.16-0.723 0-1.414 0.287-2.074 0.861v-1.629c0.73-0.473 1.555-0.709 2.473-0.709 0.859 0 1.53 0.216 2.013 0.647s0.724 1.015 0.724 1.749c0 0.98-0.588 1.994-1.764 3.041l-1.729 1.535v0.035h3.41v1.535h-5.531v-1.441l2.408-2.303c0.484-0.464 0.825-0.853 1.022-1.168zM19.837 23.166c0.264-0.203 0.396-0.486 0.396-0.85 0-0.375-0.163-0.664-0.489-0.867s-0.774-0.305-1.345-0.305h-0.756v-1.418h0.697c1.094 0 1.641-0.363 1.641-1.090 0-0.684-0.42-1.025-1.26-1.025-0.562 0-1.109 0.182-1.641 0.545v-1.512c0.59-0.297 1.277-0.445 2.062-0.445 0.859 0 1.528 0.193 2.007 0.58s0.718 0.889 0.718 1.506c0 1.098-0.557 1.785-1.67 2.062v0.029c0.594 0.074 1.062 0.29 1.406 0.647s0.516 0.796 0.516 1.315c0 0.785-0.287 1.406-0.861 1.863s-1.367 0.686-2.379 0.686c-0.867 0-1.572-0.141-2.115-0.422v-1.611c0.562 0.41 1.219 0.615 1.969 0.615 0.472 0.002 0.84-0.1 1.104-0.303zM22.969 8c-1.088 0-1.969-0.881-1.969-1.969v-2.062c0-1.088 0.881-1.969 1.969-1.969s1.969 0.881 1.969 1.969v2.062c0 1.088-0.881 1.969-1.969 1.969zM8.969 8c-1.088 0-1.969-0.881-1.969-1.969v-2.062c0-1.088 0.881-1.969 1.969-1.969s1.969 0.881 1.969 1.969v2.062c0 1.088-0.882 1.969-1.969 1.969z"></path>
</symbol>
<symbol id="icon-sale" viewBox="0 0 32 32">
<title>sale</title>
<path d="M28 31h-24c-1.657 0-3-1.344-3-3v-14c0-1.657 1.343-3 3-3h2l8.493-6.518c-0.038-0.155-0.064-0.315-0.064-0.482 0-1.104 0.896-2 2-2s1.999 0.896 1.999 2c0 0.359-0.102 0.692-0.269 0.984l7.841 6.016h2c1.656 0 3 1.343 3 3v14c0 1.656-1.344 3-3 3zM17.071 24.583h4.031v-0.758h-3.18v-5.688h-0.852v6.446zM11.303 24.583l0.706-1.953h2.708l0.742 1.953h0.972l-2.628-6.445h-0.924l-2.478 6.445h0.902zM5.342 18.894c-0.184 0.284-0.276 0.589-0.276 0.914 0 0.297 0.075 0.564 0.226 0.804s0.38 0.439 0.687 0.602c0.236 0.126 0.649 0.26 1.239 0.402s0.971 0.247 1.144 0.314c0.269 0.104 0.462 0.229 0.581 0.38s0.179 0.326 0.179 0.528c0 0.198-0.061 0.383-0.182 0.552s-0.306 0.302-0.555 0.399c-0.248 0.098-0.534 0.146-0.858 0.146-0.365 0-0.693-0.063-0.985-0.192-0.293-0.127-0.508-0.295-0.646-0.503s-0.228-0.474-0.266-0.797l-0.805 0.070c0.012 0.431 0.13 0.816 0.354 1.157s0.532 0.598 0.925 0.768c0.394 0.17 0.881 0.255 1.463 0.255 0.458 0 0.871-0.084 1.238-0.253 0.367-0.168 0.648-0.402 0.844-0.706s0.294-0.625 0.294-0.968c0-0.345-0.090-0.649-0.269-0.914s-0.456-0.484-0.832-0.656c-0.259-0.117-0.733-0.254-1.423-0.41-0.691-0.157-1.118-0.311-1.281-0.461-0.167-0.148-0.25-0.339-0.25-0.57 0-0.268 0.118-0.495 0.353-0.684s0.609-0.284 1.123-0.284c0.494 0 0.867 0.104 1.119 0.31 0.253 0.207 0.4 0.513 0.444 0.917l0.82-0.062c-0.015-0.378-0.12-0.716-0.315-1.014s-0.476-0.524-0.84-0.678-0.784-0.23-1.261-0.23c-0.433 0-0.826 0.073-1.18 0.22-0.356 0.146-0.625 0.36-0.809 0.644zM17.678 5.55c-0.344 0.277-0.774 0.45-1.249 0.45-0.662 0-1.244-0.325-1.608-0.821l-7.821 5.821h18l-7.322-5.45zM26.936 23.825h-3.953v-2.195h3.562v-0.758h-3.562v-1.977h3.805v-0.758h-4.656v6.445h4.805v-0.757zM13.314 18.81c0.104 0.353 0.256 0.8 0.457 1.343l0.679 1.782h-2.199l0.715-1.887c0.147-0.407 0.263-0.82 0.348-1.238z"></path>
</symbol>
<symbol id="icon-plus" viewBox="0 0 32 32">
<title>plus</title>
<path d="M31 12h-11v-11c0-0.552-0.448-1-1-1h-6c-0.552 0-1 0.448-1 1v11h-11c-0.552 0-1 0.448-1 1v6c0 0.552 0.448 1 1 1h11v11c0 0.552 0.448 1 1 1h6c0.552 0 1-0.448 1-1v-11h11c0.552 0 1-0.448 1-1v-6c0-0.552-0.448-1-1-1z"></path>
</symbol>
<symbol id="icon-check" viewBox="0 0 32 32">
<title>check-alt</title>
<path d="M16 0c-8.836 0-16 7.164-16 16s7.164 16 16 16 16-7.164 16-16-7.164-16-16-16zM13.52 23.383l-7.362-7.363 2.828-2.828 4.533 4.535 9.617-9.617 2.828 2.828-12.444 12.445z"></path>
</symbol>
<symbol id="icon-arrow-down" viewBox="0 0 28 28">
<title>chevron-down</title>
<path d="M26.297 12.625l-11.594 11.578c-0.391 0.391-1.016 0.391-1.406 0l-11.594-11.578c-0.391-0.391-0.391-1.031 0-1.422l2.594-2.578c0.391-0.391 1.016-0.391 1.406 0l8.297 8.297 8.297-8.297c0.391-0.391 1.016-0.391 1.406 0l2.594 2.578c0.391 0.391 0.391 1.031 0 1.422z"></path>
</symbol>
<symbol id="icon-send" viewBox="0 0 24 24">
<title>send</title>
<path d="M22.963 2.269c0.043-0.151 0.050-0.314 0.015-0.476-0.024-0.113-0.068-0.224-0.131-0.325-0.064-0.102-0.145-0.19-0.238-0.262-0.117-0.090-0.249-0.15-0.386-0.181s-0.282-0.034-0.426-0.004c-0.042 0.009-0.085 0.021-0.126 0.035l-0.021 0.007-19.98 6.993c-0.252 0.088-0.467 0.276-0.584 0.538-0.224 0.505 0.003 1.096 0.508 1.32l8.649 3.844 3.844 8.649c0.108 0.243 0.313 0.443 0.583 0.538 0.521 0.182 1.092-0.092 1.274-0.614l6.993-19.979c0.010-0.027 0.019-0.054 0.027-0.082zM10.779 11.807l-6.068-2.696 13.483-4.72zM19.609 5.806l-4.72 13.483-2.696-6.068z"></path>
</symbol>
<symbol id="icon-truck" viewBox="0 0 32 32">
<title>truck</title>
<path d="M32 18l-4-8h-6v-4c0-1.1-0.9-2-2-2h-18c-1.1 0-2 0.9-2 2v16l2 2h2.536c-0.341 0.588-0.536 1.271-0.536 2 0 2.209 1.791 4 4 4s4-1.791 4-4c0-0.729-0.196-1.412-0.536-2h11.073c-0.341 0.588-0.537 1.271-0.537 2 0 2.209 1.791 4 4 4s4-1.791 4-4c0-0.729-0.196-1.412-0.537-2h2.537v-6zM22 18v-6h4.146l3 6h-7.146z"></path>
</symbol>
<symbol id="icon-dot-menu" viewBox="0 0 20 20">
<title>dot-menu</title>
<path d="M10.001 7.8c-1.215 0-2.201 0.985-2.201 2.2s0.986 2.2 2.201 2.2c1.215 0 2.199-0.985 2.199-2.2s-0.984-2.2-2.199-2.2zM10.001 5.2c1.215 0 2.199-0.986 2.199-2.2s-0.984-2.2-2.199-2.2c-1.215 0-2.201 0.985-2.201 2.2s0.986 2.2 2.201 2.2zM10.001 14.8c-1.215 0-2.201 0.985-2.201 2.2s0.986 2.2 2.201 2.2c1.215 0 2.199-0.985 2.199-2.2s-0.984-2.2-2.199-2.2z"></path>
</symbol>
</defs>
</svg>